# xmcd
#
# Track frame offsets:
#	150
#	13352
#	26968
#	38835
#	52447
#	64478
#	80130
#	93968
#	107349
#	119039
#	131663
#	137912
#	157750
#	179940
#	196625
#
# Disc length: 2825 seconds
#
# Revision: 1
# Processed by: cddbd v1.5.2PL0 Copyright (c) Steve Scherf et al.
# Submitted via: audiograbber 1.83.01
#
DISCID=e30b070f
DTITLE=Various Artist - The Very Best Of Country
DYEAR=1900
DGENRE=
TTITLE0=Crazy
TTITLE1=I Fall To Pieces
TTITLE2=Amazing Grace
TTITLE3=9 To 5
TTITLE4=Help me make it Through The Night
TTITLE5=Nobody
TTITLE6=Rose Garden
TTITLE7=Delta Dawn
TTITLE8=Don't It Make My Brown Eyes Blue
TTITLE9=Stand By Your Man
TTITLE10=Down By The Riverside
TTITLE11=Grandpa (Tell Me Bout The Good Old Days)
TTITLE12=Fancy
TTITLE13=Somebody Should Leave
TTITLE14=Harper Valley PTA
EXTD=
EXTT0=
EXTT1=
EXTT2=
EXTT3=
EXTT4=
EXTT5=
EXTT6=
EXTT7=
EXTT8=
EXTT9=
EXTT10=
EXTT11=
EXTT12=
EXTT13=
EXTT14=
PLAYORDER=
